<?xml version="1.0" encoding="utf-8"?>
<!-- Generator: Adobe Illustrator 27.6.1, SVG Export Plug-In . SVG Version: 6.00 Build 0)  -->
<svg version="1.1" id="Layer_1" xmlns="http://www.w3.org/2000/svg" xmlns:xlink="http://www.w3.org/1999/xlink" x="0px" y="0px"
	 viewBox="0 0 460.8 541" style="enable-background:new 0 0 460.8 541;" xml:space="preserve">
<style type="text/css">
	.st0{fill:#1E1E1E;}
	.st1{fill:url(#SVGID_1_);}
	.st2{fill:url(#SVGID_00000066515461178494888490000005797239981174615693_);}
</style>
<g>
	<g>
		<g>
			<polygon class="st0" points="94,404.5 94,341.7 138.9,341.7 138.9,346.9 99.3,346.9 99.3,370.4 135.3,370.4 135.3,375.6 
				99.3,375.5 99.3,399.4 139.3,399.4 139.3,404.5 			"/>
		</g>
		<g>
			<path class="st0" d="M165.5,404.6l0-5.2l20.9,0c16.1,0,27.9-11,27.9-26.1l0-0.2c0-15.2-11.8-26.3-28-26.3l-15.4,0l0,28.7l-5.3,0
				l0-33.8l20.8,0c19.3,0,33.3,13.2,33.3,31.3l0,0.2c0,18.1-14,31.3-33.3,31.3L165.5,404.6z"/>
		</g>
		<g>
			<polygon class="st0" points="321.4,404.6 321.4,341.8 366.4,341.8 366.4,346.9 326.8,346.9 326.8,370.4 362.7,370.4 362.7,375.6 
				326.8,375.6 326.8,399.4 366.8,399.4 366.8,404.6 			"/>
		</g>
		<g>
			<path class="st0" d="M272.7,404.6c-19.3,0-33.3-13.2-33.3-31.3l0-0.2c0-18.1,14-31.3,33.3-31.3l20.8,0l0,5.2l-20.9,0
				c-16.1,0-27.9,11-27.9,26.1l0,0.2c0,15.2,11.8,26.3,28,26.3l15.4,0l0-28.7l5.3,0l0,33.8L272.7,404.6z"/>
		</g>
	</g>
	<g>
		<linearGradient id="SVGID_1_" gradientUnits="userSpaceOnUse" x1="147.088" y1="201.4497" x2="324.4102" y2="201.4497">
			<stop  offset="5.108173e-03" style="stop-color:#454545"/>
			<stop  offset="0.9949" style="stop-color:#E1E1E1"/>
		</linearGradient>
		<path class="st1" d="M232.5,107.4c50.9,1.1,91.9,42.8,91.9,94c0,51.9-42.1,94-94,94c-0.4,0-0.7,0-1.1,0c-0.4,0-0.7,0-1.1,0
			c-45-1.1-81.2-38-81.2-83.3c0-45.4,36.3-82.3,81.4-83.3c-39.2,1-70.7,33.1-70.7,72.6c0,40.1,32.5,72.6,72.6,72.6
			c0.3,0,0.6,0,0.9,0c0.3,0,0.6,0,0.9,0c45.1-1,81.4-37.9,81.4-83.3C313.7,145.4,277.6,108.6,232.5,107.4z"/>
		
			<linearGradient id="SVGID_00000102507799435361583250000008528449740788852361_" gradientUnits="userSpaceOnUse" x1="136.3697" y1="201.4233" x2="313.692" y2="201.4233">
			<stop  offset="0" style="stop-color:#E1E1E1"/>
			<stop  offset="0.9948" style="stop-color:#454545"/>
		</linearGradient>
		<path style="fill:url(#SVGID_00000102507799435361583250000008528449740788852361_);" d="M232.5,107.4c45,1.1,81.2,38,81.2,83.3
			c0,45.4-36.3,82.3-81.4,83.3c39.2-1,70.7-33.1,70.7-72.6c0-40.1-32.5-72.6-72.6-72.6c-0.3,0-0.6,0-0.9,0c-0.3,0-0.6,0-0.9,0
			c-45.1,1-81.4,37.9-81.4,83.3c0,45.3,36.1,82.1,81.2,83.3c-50.9-1.1-91.9-42.8-91.9-94c0-51.9,42.1-94,94-94c0.4,0,0.7,0,1.1,0
			C231.8,107.4,232.2,107.4,232.5,107.4z"/>
	</g>
</g>
</svg>
