<?xml version="1.0" encoding="UTF-8"?>
<svg id="Layer_1" xmlns="http://www.w3.org/2000/svg" version="1.1" viewBox="0 0 184.2 46">
  <!-- Generator: Adobe Illustrator 29.1.0, SVG Export Plug-In . SVG Version: 2.1.0 Build 142)  -->
  <g id="Artboard">
    <g id="Hollis_Primary-Logo_Orange_RGB">
      <path id="Shape" d="M56.7,3c-10.8,0-18,7.7-18,18.5s7.2,18.5,18,18.5,18-7.7,18-18.5S67.5,3,56.7,3ZM56.7,31.2c-2.8,0-7.1-1.8-7.1-9.7s4.3-9.7,7.1-9.7,7.1,1.8,7.1,9.7-4.3,9.7-7.1,9.7Z"/>
      <polygon id="Path" points="89.6 4 78.7 4 78.7 40 100.5 40 104.7 30.8 89.6 30.8 89.6 4"/>
      <polygon id="Path1" data-name="Path" points="118.6 4 107.7 4 107.7 40 129.5 40 133.7 30.8 118.6 30.8 118.6 4"/>
      <rect id="Rectangle" x="137.7" y="4" width="11" height="36"/>
      <path id="Path2" data-name="Path" d="M170.7,17.4c-5.5-1.5-8-1.9-8-3.9s1.7-2.3,4.2-2.3,7.6,1.7,10.4,3.6l3.6-7.8c-3.7-2.6-8.5-4-14.1-4-9,0-14.3,4.9-14.3,11.4s5.3,9.2,10.3,10.6c5.3,1.5,8.8,1.8,8.8,4.1s-1.5,2.7-4.4,2.7-8.5-1.8-11.6-3.9l-3.8,8.3c4.4,2.7,9.9,3.8,15.1,3.8,9.1,0,14.9-4.7,14.9-12,0-6.4-5.7-9.1-11.1-10.6Z"/>
      <polygon id="Path3" data-name="Path" points="23.8 17.4 13.6 17.4 13.6 3 2.7 7.4 2.7 41 13.6 36.6 13.6 26.6 23.8 26.6 23.8 41 34.7 36.6 34.7 3 23.8 7.4 23.8 17.4"/>
    </g>
  </g>
</svg>