<?xml version="1.0" encoding="UTF-8"?>
<svg id="G_x26_S_x26__Logo" xmlns="http://www.w3.org/2000/svg" version="1.1" viewBox="0 0 850 350">
  <!-- Generator: Adobe Illustrator 29.1.0, SVG Export Plug-In . SVG Version: 2.1.0 Build 142)  -->
  <path d="M646.8,155.4c-26.1-28.3-34.5-43.2-34.5-59.4s10.6-24.6,27.4-24.6,28.9,18,28.9,41.1-1.2,27.7-21.8,42.9ZM342.6,155.1c-28-28.9-34.8-45.4-34.8-58.2s11.8-25.5,27.1-25.5,29.2,18,29.2,41.1-1.2,27.1-21.5,42.6ZM165.3,288.8c21.2,0,43.5-6.5,62.8-6.5s6.2.6,10.3,1.9c-1.6-24.3-1.6-45.4-1.6-61s.6-18,1.9-21.8c2.8-7.8,13.4-10.9,28.9-10.9s13.7,0,19.6.3l1.6,1.9c-15.2,13.1-29.5,27.1-29.5,45.7s22.4,50.4,58.5,50.4,47.3-11.2,65.6-31.7c24.6,21.2,47.6,31.7,77.1,31.7s76.2-14.9,86.2-53.5c2.5,31.7,28.6,53.5,63.5,53.5s51.6-10.3,72.2-36.1c27.1,24.6,50.4,36.1,80.6,36.1s29.9-1.9,42.9-5.6l-.9-8.4c-3.7.9-8.1,1.2-11.5,1.2-27.4,0-51.9-20.5-84.6-52.9,20.2-24.3,40.4-46.7,91.4-65.3v-9c-9,.3-18.4.3-27.7.3s-18.4,0-27.7-.3c-10.3,18-22.4,36.7-44.5,65.6-17.1-18-34.2-37.3-45.7-50.7,8.4-5.9,15.6-10.6,19.6-13.4,25.8-16.8,28.6-29.9,28.6-42.6,0-22.1-19.3-46.7-59.7-46.7s-61.6,20.5-61.6,56.3,18,43.9,32,59.7c7.8,8.7,30.5,36.4,53.8,61,2.2,2.2,4,4.4,6.2,6.2-12.1,13.1-25.8,19-41.4,19-28.6,0-50.4-24.6-50.4-48.8s4.7-24,19-33.3l-6.2-7.5c-35.1,23.6-39.5,31.4-47.6,46.3-1.9-27.4-20.5-43.9-50.1-68.4-18.4-15.2-34.8-29.5-34.8-47.6s14-32.3,33.6-32.3,19.6,5,25.2,14.3c4.7,8.4,9.3,19.6,12.4,32h11.2c-1.9-17.7-2.8-39.5-3.7-52.6-7.8-.3-24.9-4.4-40.1-4.4-42.9,0-70.3,27.7-70.3,60.3s19.9,42.6,39.5,59.1c19.6,16.5,39.2,33.6,39.2,60s-12.4,35.5-27.7,35.5-34.5-12.1-71.2-47.3c10.6-9,24.6-17.1,42.3-23v-7.8c-6.2.3-12.8.3-19,.3s-9.3,0-14-.3c-4.7,8.4-10,14.6-17.1,23-23-22.7-42.3-45.4-52.3-57.2,6.5-5,14.6-10,18.4-12.4,27.1-17.7,29.9-30.8,29.9-43.5,0-22.1-19.6-46.7-60-46.7s-61.3,23.6-61.3,55.1,8.4,33.9,30.8,59.7c26.1,30.5,47,54.7,66.6,73.1-11.2,10.3-23.6,14.3-34.2,14.3-24.9,0-48.2-19.6-48.2-45.1s3.4-19.3,9-30.5l-7.2-8.4c-31.1.9-52.9.9-76.5.9s-41.1-.3-55.7-.9v10.3c14.6,1.2,25.8,3.4,30.5,8.1s3.4,7.5,4.4,21.5c.3,5.3.3,10.9.3,16.2s0,10.6-.3,16.2c-.6,17.1-7.2,27.1-28.9,27.1-56.3,0-75.3-61.6-75.3-110.1s27.4-96.7,75.6-96.7,35.1,3.7,43.2,13.1c9,10.9,12.8,22.4,17.4,38.3h11.5c-2.2-20.8-3.1-41.4-3.7-57.2-9.6-.3-41.4-4.7-68.1-4.7-63.1,0-123.8,42.9-123.8,118.2s45.1,109.5,121,109.5Z"/>
</svg>