<svg width="232" height="55" viewBox="0 0 232 55" fill="none" xmlns="http://www.w3.org/2000/svg">
<g clip-path="url(#clip0_0_3)">
<mask id="mask0_0_3" style="mask-type:luminance" maskUnits="userSpaceOnUse" x="2" y="2" width="235" height="48">
<path d="M236.688 2.61933H2.3183V49.7848H236.688V2.61933Z" fill="white"/>
</mask>
<g mask="url(#mask0_0_3)">
<path d="M204.799 31.8254C204.799 29.3999 205.181 27.086 205.952 24.8836C206.717 22.6871 207.816 20.9076 209.244 19.5451C210.673 18.1826 212.346 17.5013 214.263 17.5013C215.925 17.5013 217.37 18.0475 218.607 19.134C219.844 20.2205 220.788 21.6594 221.451 23.4389C222.109 25.2184 222.485 27.1329 222.569 29.1826H202.313V30.8153H228.191C228.233 27.7613 227.713 25.1127 226.626 22.8692C225.538 20.6316 223.943 18.9108 221.834 17.7186C219.725 16.5264 217.203 15.9274 214.263 15.9274C211.109 15.9274 208.396 16.6909 206.114 18.2178C203.837 19.7448 202.098 21.7886 200.903 24.3433C199.708 26.898 199.117 29.7229 199.117 32.8238C199.117 35.9247 199.756 38.7085 201.035 41.3043C202.313 43.9002 204.154 45.9616 206.562 47.4885C208.97 49.0155 211.748 49.779 214.903 49.779C218.482 49.779 221.505 48.6514 223.979 46.3903C226.447 44.1292 228.024 41.1575 228.705 37.4693L228 37.346C226.895 40.1532 225.371 42.3086 223.429 43.8121C221.487 45.3214 219.265 46.0731 216.749 46.0731C214.664 46.0731 212.704 45.5093 210.87 44.3759C209.035 43.2483 207.566 41.6038 206.46 39.4485C205.355 37.2931 204.799 34.7501 204.799 31.8195M176.448 46.4608V2.61933L166.798 5.19167V5.94341L171.273 7.13561V46.4549L166.798 48.4634V49.1564H180.917V48.4634L176.442 46.4549L176.448 46.4608ZM184.371 26.9274L180.666 30.4453L191.911 46.5841L187.627 48.4693L187.561 49.1623H202.642V48.4693L198.107 46.4608L184.371 26.9274ZM186.862 16.5617V17.2547L191.08 19.3278L173.06 35.4666V37.4164L194.403 19.4511L199.451 17.2547V16.5617H186.862ZM146.376 49.7907C149.315 49.7907 151.699 49.0507 153.534 47.559C155.362 46.0731 156.814 44.0294 157.877 41.4335L157.686 38.8612C157.214 40.4939 156.557 41.9269 155.703 43.166C154.848 44.3994 153.82 45.3214 152.601 45.9322C151.389 46.5371 150.056 46.8425 148.61 46.8425C146.65 46.8425 145.151 46.3198 144.105 45.2744C143.059 44.229 142.54 42.7843 142.54 40.9402C142.54 38.8494 143.245 37.1111 144.649 35.725C146.053 34.3449 148.186 33.2525 151.036 32.4597L157.615 30.827V49.1682H167.264V48.4752L162.789 46.402V27.1212C162.789 24.819 162.311 22.8163 161.349 21.1249C160.393 19.4277 159.007 18.1415 157.196 17.2605C155.386 16.3796 153.181 15.9391 150.582 15.9391C148.156 15.9391 145.957 16.3679 143.997 17.2253C142.038 18.0828 140.502 19.3102 139.397 20.9018C138.291 22.4933 137.712 24.3139 137.67 26.3636L143.101 27.4325C142.886 25.2536 143.113 23.4154 143.77 21.906C144.428 20.3967 145.36 19.2926 146.549 18.5761C147.744 17.8655 149.064 17.5072 150.51 17.5072C151.956 17.5072 153.151 17.8302 154.215 18.4821C155.278 19.134 156.109 20.0619 156.706 21.2776C157.304 22.4933 157.603 23.9381 157.603 25.6119V29.3177L148.527 31.4554C145.927 32.1249 143.764 32.9119 142.044 33.8105C140.317 34.709 139.026 35.8131 138.178 37.1052C137.323 38.4031 136.899 39.9301 136.899 41.6919C136.899 43.3246 137.27 44.7576 138.017 45.9968C138.763 47.2301 139.857 48.1757 141.309 48.8217C142.755 49.4677 144.44 49.7966 146.358 49.7966M82.8195 49.1623H96.4305V48.4693L92.2779 46.4608V29.0005C92.6185 25.8585 93.5864 23.4506 95.1877 21.7768C96.783 20.103 98.6293 19.2632 100.715 19.2632C102.543 19.2632 104.013 19.8799 105.124 21.1132C106.23 22.3465 106.785 24.267 106.785 26.8628V46.4608L102.698 48.4693V49.1623H116.118V48.4693L111.966 46.4608V29.0005C112.306 25.7763 113.262 23.3508 114.839 21.7122C116.417 20.0796 118.269 19.2632 120.396 19.2632C122.231 19.2632 123.688 19.8799 124.776 21.1132C125.863 22.3465 126.407 24.267 126.407 26.8628V46.4608L122.32 48.4693V49.1623H135.997V48.4693L131.719 46.4608V26.7395C131.719 24.4784 131.301 22.5227 130.47 20.8665C129.64 19.2104 128.498 17.977 127.052 17.1607C125.606 16.3444 123.945 15.9391 122.069 15.9391C119.853 15.9391 117.827 16.6498 115.999 18.0769C114.164 19.4981 112.784 21.5948 111.846 24.355C111.464 21.6359 110.43 19.551 108.745 18.1062C107.06 16.6615 104.963 15.9391 102.453 15.9391C100.111 15.9391 98.0557 16.6732 96.2871 18.1356C94.5185 19.6038 93.1861 21.6946 92.2958 24.4138V15.9333L82.6462 18.5056V19.2573L87.1215 20.4495V46.449L82.8434 48.4576V49.1506L82.8195 49.1623ZM55.7587 32.7064C55.7587 30.3219 56.1411 28.2253 56.9059 26.4282C57.6707 24.6252 58.788 23.2333 60.2579 22.2525C61.7277 21.2718 63.5083 20.7784 65.5935 20.7784C67.2546 20.7784 68.7245 21.1367 70.0031 21.8473C71.2818 22.5579 72.2915 23.5446 73.0384 24.8014C73.7853 26.0582 74.1975 27.5264 74.2872 29.2002H53.2014V33.787H80.7402C81.0389 31.1089 80.782 28.4074 79.9754 25.6823C79.1628 22.9632 77.5913 20.6551 75.2491 18.7758C72.9069 16.8905 69.6924 15.9509 65.5995 15.9509C62.4925 15.9509 59.7201 16.6615 57.2943 18.0886C54.8684 19.5099 52.9684 21.5125 51.6061 24.0849C50.2438 26.6572 49.5626 29.582 49.5626 32.8473C49.5626 36.1127 50.2557 39.0315 51.6419 41.6097C53.0281 44.1821 54.9521 46.1965 57.4257 47.6412C59.8934 49.086 62.7076 49.8083 65.8624 49.8083C69.7402 49.8083 72.9667 48.9509 75.5419 47.236C78.1171 45.5211 79.8559 43.1778 80.7521 40.2002L74.6158 38.4442C74.0183 40.5408 73.0085 42.0796 71.5805 43.0603C70.1525 44.047 68.2883 44.5344 65.9879 44.5344C63.9444 44.5344 62.14 44.0646 60.5865 43.1191C59.033 42.1794 57.838 40.8169 57.0075 39.0374C56.177 37.2579 55.7587 35.1554 55.7587 32.724M12.5415 49.1623H18.2895L25.8956 25.2301L33.3704 49.1623H39.3752L48.3856 20.5846L49.5328 16.8142V16.5617H43.1455L43.0797 16.8142L42.058 20.5846L36.3698 40.6231L30.108 20.5846L28.9608 16.8788L28.8353 16.5675H22.9559L22.8305 16.8201L21.6833 20.5905L21.4921 21.2835L15.4872 40.6289L9.67353 20.5905L8.6518 16.8201L8.58607 16.5675H2.3183V16.8201L3.53123 20.5905L12.5415 49.1682V49.1623Z" fill="white"/>
</g>
</g>
<defs>
<clipPath id="clip0_0_3">
<rect width="232" height="55" fill="white"/>
</clipPath>
</defs>
</svg>
