<svg width="57" height="23" viewBox="0 0 57 23" fill="none" xmlns="http://www.w3.org/2000/svg">
<g clip-path="url(#clip0_1_3)">
<path d="M26.7662 0.432762L26.7241 0.606488L26.011 3.24029L22.3688 16.8017L18.3055 3.24029L17.5503 0.648368L17.466 0.432762H13.5305L13.4463 0.606488L12.6926 3.24029L12.5662 3.71493L8.67133 16.8017L4.94344 3.24029L4.27248 0.606488L4.18823 0.432762H0V0.606488L0.797329 3.24029L6.70208 22.8464H10.5563L15.4983 6.56589L20.3575 22.8464H24.3787L28.1051 10.3832L29.5448 5.56852L29.796 4.72936L30.2428 3.24029L30.655 1.8722L31.0372 0.606488V0.432762H26.7662Z" fill="white"/>
<mask id="mask0_1_3" style="mask-type:luminance" maskUnits="userSpaceOnUse" x="0" y="0" width="57" height="23">
<path d="M57 0H0V23H57V0Z" fill="white"/>
</mask>
<g mask="url(#mask0_1_3)">
<path d="M54.1938 20.9493V7.47166C54.1938 5.89107 53.9261 4.53539 53.3965 3.41393C52.8655 2.29247 52.1193 1.44245 51.155 0.865438C50.1906 0.289973 49.0969 0.00146484 47.8694 0.00146484C46.4161 0.00146484 45.0953 0.499374 43.9098 1.49364C42.7243 2.48791 41.8097 3.90563 41.1673 5.74681C40.916 3.87616 40.2451 2.45223 39.1574 1.47037C38.0682 0.49317 36.6977 0.00146484 35.0519 0.00146484C33.9703 0.00146484 32.9819 0.255848 32.0898 0.764616L31.3722 3.19367C32.0928 2.73609 32.8856 2.50652 33.7536 2.50652C34.8684 2.50652 35.7785 2.91757 36.4766 3.73966C37.1731 4.55865 37.5236 5.80575 37.5236 7.47321V20.9509L34.8428 22.3314V22.8479H44.0151V22.3314L41.2921 20.9509V8.8537C41.5163 6.78141 42.1151 5.20702 43.0929 4.12589C44.0693 3.04631 45.2307 2.50497 46.5711 2.50497C47.7159 2.50497 48.6351 2.91602 49.3361 3.73811C50.0312 4.5571 50.3817 5.8042 50.3817 7.47166V20.9493L47.7009 22.3298V22.8464H57.001V22.3298L54.1953 20.9493H54.1938Z" fill="white"/>
</g>
</g>
<defs>
<clipPath id="clip0_1_3">
<rect width="57" height="23" fill="white"/>
</clipPath>
</defs>
</svg>
